<svg xmlns="http://www.w3.org/2000/svg" xmlns:xlink="http://www.w3.org/1999/xlink" width="170" zoomAndPan="magnify" viewBox="0 0 127.5 60" height="80" preserveAspectRatio="xMidYMid meet" version="1.0"><defs><g/><clipPath id="4a2abedf42"><path d="M 1 3.789062 L 52.914062 3.789062 L 52.914062 54 L 1 54 Z M 1 3.789062 " clip-rule="nonzero"/></clipPath></defs><path fill="#2299b4" d="M 21.945312 40.105469 L 21.945312 52.734375 C 19.421875 52.242188 16.953125 51.34375 14.660156 50.042969 L 14.660156 45.324219 C 15.03125 45.085938 15.398438 44.84375 15.761719 44.605469 C 17.515625 43.441406 19.222656 42.207031 20.890625 40.929688 C 21.246094 40.65625 21.59375 40.386719 21.945312 40.105469 Z M 21.945312 40.105469 " fill-opacity="1" fill-rule="nonzero"/><path fill="#2299b4" d="M 31.84375 31.191406 L 31.84375 52.636719 C 29.449219 53.15625 26.992188 53.3125 24.5625 53.105469 L 24.5625 37.953125 L 25.761719 36.929688 L 26.355469 36.417969 L 26.941406 35.890625 C 27.328125 35.539062 27.71875 35.1875 28.105469 34.832031 C 28.875 34.121094 29.632812 33.398438 30.378906 32.667969 C 30.757812 32.304688 31.125 31.933594 31.492188 31.5625 Z M 31.84375 31.191406 " fill-opacity="1" fill-rule="nonzero"/><path fill="#2299b4" d="M 41.621094 19.792969 L 41.621094 48.042969 C 39.386719 49.792969 36.921875 51.09375 34.339844 51.953125 L 34.339844 28.59375 C 34.480469 28.449219 34.613281 28.296875 34.75 28.144531 C 36.164062 26.59375 37.535156 25.007812 38.855469 23.375 C 39.800781 22.207031 40.726562 21.007812 41.621094 19.792969 Z M 41.621094 19.792969 " fill-opacity="1" fill-rule="nonzero"/><g clip-path="url(#4a2abedf42)"><path fill="#5ce4e4" d="M 40.378906 8.730469 C 39.109375 7.941406 37.777344 7.269531 36.40625 6.71875 C 35.027344 6.175781 33.609375 5.753906 32.167969 5.464844 C 30.726562 5.175781 29.261719 5.011719 27.804688 4.988281 C 26.34375 4.960938 24.878906 5.058594 23.445312 5.300781 C 22.007812 5.539062 20.601562 5.898438 19.234375 6.390625 L 18.726562 6.574219 C 18.558594 6.640625 18.390625 6.714844 18.222656 6.777344 L 17.722656 6.988281 L 17.234375 7.210938 C 17.070312 7.289062 16.902344 7.363281 16.742188 7.445312 L 16.261719 7.691406 L 16.015625 7.8125 L 15.894531 7.878906 L 15.78125 7.949219 L 15.308594 8.214844 C 14.066406 8.9375 12.890625 9.769531 11.800781 10.707031 C 10.714844 11.640625 9.707031 12.671875 8.804688 13.777344 C 7.898438 14.890625 7.101562 16.074219 6.417969 17.320312 C 5.734375 18.570312 5.167969 19.878906 4.726562 21.226562 C 4.289062 22.578125 3.96875 23.960938 3.777344 25.367188 C 3.585938 26.769531 3.523438 28.1875 3.585938 29.597656 C 3.707031 32.417969 4.355469 35.210938 5.480469 37.785156 C 6.042969 39.070312 6.71875 40.308594 7.5 41.472656 C 7.882812 42.0625 8.304688 42.621094 8.75 43.164062 C 9.195312 43.707031 9.660156 44.230469 10.152344 44.734375 L 8.375 44.484375 C 8.816406 44.222656 9.242188 43.96875 9.671875 43.703125 C 10.101562 43.441406 10.527344 43.175781 10.949219 42.902344 C 11.800781 42.363281 12.640625 41.808594 13.46875 41.242188 C 15.132812 40.101562 16.753906 38.910156 18.339844 37.664062 C 19.132812 37.039062 19.917969 36.40625 20.6875 35.765625 L 20.976562 35.523438 L 21.261719 35.273438 L 21.835938 34.773438 L 22.980469 33.785156 L 23.554688 33.289062 L 24.117188 32.785156 C 24.492188 32.441406 24.863281 32.105469 25.234375 31.757812 C 25.972656 31.070312 26.703125 30.375 27.425781 29.664062 C 27.785156 29.308594 28.152344 28.957031 28.503906 28.59375 L 30.613281 26.414062 C 30.957031 26.050781 31.292969 25.667969 31.636719 25.296875 L 32.660156 24.179688 L 33.171875 23.617188 L 33.667969 23.050781 C 34.335938 22.292969 34.984375 21.515625 35.625 20.742188 C 38.195312 17.628906 40.582031 14.367188 42.738281 10.96875 L 43.722656 9.417969 L 44.996094 10.703125 C 45.148438 10.855469 45.289062 11.003906 45.421875 11.144531 C 45.554688 11.289062 45.6875 11.433594 45.820312 11.582031 C 46.085938 11.878906 46.339844 12.179688 46.589844 12.484375 C 47.085938 13.101562 47.5625 13.738281 47.996094 14.398438 C 48.875 15.710938 49.636719 17.113281 50.25 18.570312 C 51.480469 21.484375 52.164062 24.621094 52.261719 27.769531 C 52.351562 30.917969 51.851562 34.074219 50.796875 37.027344 C 49.746094 39.980469 48.148438 42.730469 46.097656 45.078125 C 45.074219 46.253906 43.949219 47.335938 42.734375 48.304688 C 41.519531 49.265625 40.214844 50.121094 38.851562 50.847656 C 36.117188 52.292969 33.113281 53.207031 30.066406 53.550781 C 27.023438 53.890625 23.925781 53.660156 20.996094 52.871094 C 19.53125 52.480469 18.105469 51.953125 16.746094 51.292969 C 15.390625 50.632812 14.101562 49.851562 12.902344 48.953125 C 14.175781 49.746094 15.511719 50.417969 16.890625 50.96875 C 18.273438 51.511719 19.699219 51.933594 21.144531 52.222656 C 22.59375 52.511719 24.0625 52.667969 25.527344 52.6875 C 26.265625 52.699219 26.992188 52.675781 27.722656 52.625 C 28.453125 52.566406 29.175781 52.480469 29.898438 52.355469 C 30.617188 52.234375 31.328125 52.078125 32.035156 51.898438 C 32.742188 51.714844 33.4375 51.5 34.121094 51.25 C 34.804688 51.003906 35.472656 50.722656 36.128906 50.417969 C 36.78125 50.109375 37.425781 49.773438 38.050781 49.410156 C 39.300781 48.679688 40.472656 47.828125 41.558594 46.890625 C 42.648438 45.953125 43.648438 44.910156 44.546875 43.792969 L 45.199219 42.945312 C 45.402344 42.648438 45.613281 42.359375 45.8125 42.0625 C 46.003906 41.761719 46.203125 41.460938 46.386719 41.15625 L 46.652344 40.691406 L 46.785156 40.460938 L 46.855469 40.34375 L 46.921875 40.222656 C 47.597656 38.964844 48.160156 37.644531 48.59375 36.292969 C 49.460938 33.582031 49.84375 30.714844 49.6875 27.886719 C 49.53125 25.054688 48.863281 22.265625 47.707031 19.6875 C 47.128906 18.402344 46.441406 17.167969 45.640625 16.011719 C 45.242188 15.433594 44.8125 14.871094 44.359375 14.332031 C 44.136719 14.0625 43.902344 13.800781 43.667969 13.539062 C 43.542969 13.414062 43.429688 13.28125 43.308594 13.15625 C 43.1875 13.03125 43.0625 12.902344 42.949219 12.792969 L 45.210938 12.527344 C 43.035156 16.074219 40.59375 19.457031 37.976562 22.679688 C 37.320312 23.484375 36.648438 24.285156 35.972656 25.066406 L 35.464844 25.652344 L 34.941406 26.230469 L 33.894531 27.382812 C 33.539062 27.765625 33.199219 28.152344 32.839844 28.527344 L 30.675781 30.761719 C 30.308594 31.132812 29.945312 31.5 29.574219 31.863281 C 28.835938 32.585938 28.082031 33.304688 27.324219 34.011719 C 26.941406 34.363281 26.558594 34.710938 26.175781 35.058594 L 25.597656 35.578125 L 25.007812 36.089844 L 23.828125 37.101562 L 23.234375 37.613281 L 22.941406 37.867188 L 22.640625 38.117188 C 21.839844 38.773438 21.023438 39.421875 20.203125 40.0625 C 18.558594 41.328125 16.875 42.554688 15.144531 43.714844 C 14.28125 44.292969 13.398438 44.859375 12.519531 45.410156 C 12.078125 45.683594 11.628906 45.953125 11.183594 46.21875 C 10.738281 46.488281 10.28125 46.746094 9.832031 47.003906 L 8.832031 47.574219 L 8.054688 46.757812 C 7.511719 46.1875 6.996094 45.589844 6.503906 44.96875 C 6.019531 44.351562 5.550781 43.714844 5.128906 43.046875 C 4.265625 41.726562 3.527344 40.328125 2.933594 38.867188 C 2.335938 37.410156 1.875 35.898438 1.550781 34.363281 C 1.503906 34.171875 1.472656 33.976562 1.4375 33.785156 L 1.335938 33.207031 C 1.277344 32.816406 1.226562 32.429688 1.171875 32.042969 C 1.136719 31.648438 1.097656 31.261719 1.070312 30.867188 L 1.039062 30.277344 C 1.035156 30.078125 1.015625 29.882812 1.015625 29.6875 C 0.957031 26.546875 1.46875 23.410156 2.539062 20.476562 C 3.070312 19.011719 3.738281 17.59375 4.53125 16.25 C 5.324219 14.90625 6.246094 13.648438 7.269531 12.480469 C 8.292969 11.316406 9.421875 10.246094 10.632812 9.289062 C 11.847656 8.335938 13.152344 7.496094 14.515625 6.785156 L 15.03125 6.515625 L 15.160156 6.453125 L 15.292969 6.394531 L 15.554688 6.273438 L 16.082031 6.03125 C 16.253906 5.949219 16.433594 5.886719 16.613281 5.8125 L 17.144531 5.597656 L 17.691406 5.40625 C 17.871094 5.34375 18.046875 5.273438 18.234375 5.214844 L 18.785156 5.046875 C 20.253906 4.605469 21.757812 4.292969 23.277344 4.125 C 26.308594 3.789062 29.394531 4.046875 32.3125 4.828125 C 35.238281 5.609375 37.992188 6.941406 40.378906 8.730469 Z M 40.378906 8.730469 " fill-opacity="1" fill-rule="nonzero"/></g><path fill="#2299b4" d="M 22.039062 16.765625 C 21.570312 16.503906 20.671875 16.128906 19.496094 16.128906 C 17.792969 16.128906 17.085938 17.117188 17.085938 18.03125 C 17.085938 19.25 17.890625 19.84375 19.703125 20.632812 C 22.003906 21.640625 23.109375 22.894531 23.109375 24.859375 C 23.109375 27.25 21.332031 29.042969 18.117188 29.042969 C 16.773438 29.042969 15.351562 28.648438 14.660156 28.1875 L 15.148438 26.375 C 15.914062 26.84375 17.078125 27.214844 18.25 27.214844 C 19.953125 27.214844 20.902344 26.335938 20.902344 25.050781 C 20.902344 23.832031 20.171875 23.085938 18.472656 22.375 C 16.339844 21.515625 14.898438 20.226562 14.898438 18.28125 C 14.898438 16.019531 16.710938 14.320312 19.554688 14.320312 C 20.921875 14.320312 21.945312 14.65625 22.5625 14.976562 Z M 22.039062 16.765625 " fill-opacity="1" fill-rule="nonzero"/><path fill="#2299b4" d="M 17.996094 12.542969 L 19.769531 12.542969 L 19.769531 30.816406 L 17.996094 30.816406 Z M 17.996094 12.542969 " fill-opacity="1" fill-rule="nonzero"/><g fill="#2299b4" fill-opacity="1"><g transform="translate(54.607858, 32.133521)"><g><path d="M 0.734375 0 L 0.734375 -6.96875 L 5.328125 -6.96875 L 5.328125 -5.171875 L 2.75 -5.171875 L 2.75 -3.8125 L 5.078125 -3.8125 L 5.078125 -2.0625 L 2.75 -2.0625 L 2.75 0 Z M 0.734375 0 "/></g></g></g><g fill="#2299b4" fill-opacity="1"><g transform="translate(64.302827, 32.133521)"><g><path d="M 0.734375 0 L 0.734375 -6.96875 L 2.75 -6.96875 L 2.75 0 Z M 0.734375 0 "/></g></g></g><g fill="#2299b4" fill-opacity="1"><g transform="translate(71.768302, 32.133521)"><g><path d="M 0.734375 0 L 0.734375 -6.96875 L 2.375 -6.96875 L 5.03125 -3.4375 L 5.03125 -6.96875 L 7 -6.96875 L 7 0 L 5.375 0 L 2.734375 -3.546875 L 2.734375 0 Z M 0.734375 0 "/></g></g></g><g fill="#2299b4" fill-opacity="1"><g transform="translate(83.503653, 32.133521)"><g><path d="M 0.046875 0 L 2.75 -6.96875 L 4.75 -6.96875 L 7.453125 0 L 5.3125 0 L 4.9375 -0.984375 L 2.5625 -0.984375 L 2.1875 0 Z M 2.96875 -2.453125 L 4.53125 -2.453125 L 3.75 -4.625 Z M 2.96875 -2.453125 "/></g></g></g><g fill="#2299b4" fill-opacity="1"><g transform="translate(94.990177, 32.133521)"><g><path d="M 0.734375 0 L 0.734375 -6.96875 L 2.375 -6.96875 L 5.03125 -3.4375 L 5.03125 -6.96875 L 7 -6.96875 L 7 0 L 5.375 0 L 2.734375 -3.546875 L 2.734375 0 Z M 0.734375 0 "/></g></g></g><g fill="#2299b4" fill-opacity="1"><g transform="translate(106.725529, 32.133521)"><g><path d="M 3.984375 0.15625 C 3.265625 0.15625 2.628906 0.00390625 2.078125 -0.296875 C 1.535156 -0.609375 1.109375 -1.035156 0.796875 -1.578125 C 0.492188 -2.128906 0.34375 -2.765625 0.34375 -3.484375 C 0.34375 -4.203125 0.492188 -4.832031 0.796875 -5.375 C 1.097656 -5.925781 1.519531 -6.351562 2.0625 -6.65625 C 2.613281 -6.957031 3.25 -7.109375 3.96875 -7.109375 C 4.59375 -7.109375 5.15625 -6.988281 5.65625 -6.75 C 6.164062 -6.519531 6.585938 -6.1875 6.921875 -5.75 C 7.265625 -5.320312 7.5 -4.8125 7.625 -4.21875 L 5.59375 -4.21875 C 5.488281 -4.53125 5.296875 -4.78125 5.015625 -4.96875 C 4.734375 -5.15625 4.410156 -5.25 4.046875 -5.25 C 3.722656 -5.25 3.4375 -5.175781 3.1875 -5.03125 C 2.9375 -4.882812 2.738281 -4.675781 2.59375 -4.40625 C 2.445312 -4.144531 2.375 -3.835938 2.375 -3.484375 C 2.375 -3.140625 2.441406 -2.832031 2.578125 -2.5625 C 2.722656 -2.289062 2.921875 -2.082031 3.171875 -1.9375 C 3.421875 -1.789062 3.707031 -1.71875 4.03125 -1.71875 C 4.40625 -1.71875 4.734375 -1.8125 5.015625 -2 C 5.296875 -2.195312 5.5 -2.457031 5.625 -2.78125 L 7.65625 -2.78125 C 7.5625 -2.195312 7.34375 -1.679688 7 -1.234375 C 6.664062 -0.796875 6.238281 -0.453125 5.71875 -0.203125 C 5.207031 0.0351562 4.628906 0.15625 3.984375 0.15625 Z M 3.984375 0.15625 "/></g></g></g><g fill="#2299b4" fill-opacity="1"><g transform="translate(118.689802, 32.133521)"><g><path d="M 0.734375 0 L 0.734375 -6.96875 L 5.515625 -6.96875 L 5.515625 -5.34375 L 2.734375 -5.34375 L 2.734375 -4.328125 L 5.25 -4.328125 L 5.25 -2.71875 L 2.734375 -2.71875 L 2.734375 -1.640625 L 5.625 -1.640625 L 5.625 0 Z M 0.734375 0 "/></g></g></g></svg>